<svg version="1.1" xmlns="http://www.w3.org/2000/svg" viewBox="0 0 533.7309050291777 456.97669198077176" width="1067.4618100583555" height="913.9533839615435">
  <!-- svg-source:excalidraw -->
  
  <defs>

  </defs>
  <g stroke-linecap="round"><g transform="translate(149.7612315788865 11.092633021371427) rotate(0 -69.71979905515911 82.04734877397773)"><path d="M0.32 -0.03 C-8.31 7.71, -28.49 17.94, -51.84 45.48 C-75.19 73.02, -125.46 145.54, -139.76 165.19 M-0.97 -1.09 C-9.2 6.84, -26.71 19.05, -49.45 46.45 C-72.19 73.86, -122.25 143.75, -137.42 163.34" stroke="#1e1e1e" stroke-width="1" fill="none"></path></g></g><mask></mask><g stroke-linecap="round"><g transform="translate(335.3706065788866 170.34653927137143) rotate(0 93.89325691014528 -79.39007132614645)"><path d="M-0.57 0.44 C15.91 -25.22, 67.66 -152.83, 99.15 -155.03 C130.63 -157.22, 173.49 -36.74, 188.36 -12.72 M4.31 -1.79 C20.42 -28.17, 66.7 -157.75, 97.03 -159.21 C127.36 -160.67, 171 -35.71, 186.27 -10.55" stroke="#1e1e1e" stroke-width="1" fill="none"></path></g></g><mask></mask><g transform="translate(252.82373157888674 275.5418517713714) rotate(0 21.1099853515625 12.5)"><text x="0" y="0" font-family="Virgil, Segoe UI Emoji" font-size="20px" fill="#1e1e1e" text-anchor="start" style="white-space: pre;" direction="ltr" dominant-baseline="text-before-edge">Rxjs</text></g><g transform="translate(191.79248157888674 361.7918517713714) rotate(0 21.619979858398438 12.5)"><text x="0" y="0" font-family="Virgil, Segoe UI Emoji" font-size="20px" fill="#1e1e1e" text-anchor="start" style="white-space: pre;" direction="ltr" dominant-baseline="text-before-edge">nuxt</text></g><g transform="translate(208.25341907888674 334.0574767713714) rotate(0 21.369979858398438 12.5)"><text x="0" y="0" font-family="Virgil, Segoe UI Emoji" font-size="20px" fill="#1e1e1e" text-anchor="start" style="white-space: pre;" direction="ltr" dominant-baseline="text-before-edge">node</text></g><g transform="translate(199.52685657888674 388.8816955213714) rotate(0 18.53997802734375 12.5)"><text x="0" y="0" font-family="Virgil, Segoe UI Emoji" font-size="20px" fill="#1e1e1e" text-anchor="start" style="white-space: pre;" direction="ltr" dominant-baseline="text-before-edge">vite</text></g><g transform="translate(171.69091907888674 418.9207580213714) rotate(0 38.129966735839844 12.5)"><text x="0" y="0" font-family="Virgil, Segoe UI Emoji" font-size="20px" fill="#1e1e1e" text-anchor="start" style="white-space: pre;" direction="ltr" dominant-baseline="text-before-edge">webpack</text></g><g transform="translate(236.37060657888674 301.9324767713714) rotate(0 15.159980773925781 12.5)"><text x="0" y="0" font-family="Virgil, Segoe UI Emoji" font-size="20px" fill="#1e1e1e" text-anchor="start" style="white-space: pre;" direction="ltr" dominant-baseline="text-before-edge">ssr</text></g><g transform="translate(261.15576282888674 324.8699767713714) rotate(0 14.749984741210938 12.5)"><text x="0" y="0" font-family="Virgil, Segoe UI Emoji" font-size="20px" fill="#1e1e1e" text-anchor="start" style="white-space: pre;" direction="ltr" dominant-baseline="text-before-edge">csr</text></g><g transform="translate(284.46435657888674 300.6473205213714) rotate(0 15.869979858398438 12.5)"><text x="0" y="0" font-family="Virgil, Segoe UI Emoji" font-size="20px" fill="#1e1e1e" text-anchor="start" style="white-space: pre;" direction="ltr" dominant-baseline="text-before-edge">ssg</text></g><g transform="translate(241.94873157888674 359.7879455213714) rotate(0 29.069969177246094 12.5)"><text x="0" y="0" font-family="Virgil, Segoe UI Emoji" font-size="20px" fill="#1e1e1e" text-anchor="start" style="white-space: pre;" direction="ltr" dominant-baseline="text-before-edge">uniapp</text></g><g transform="translate(253.96826282888674 388.0731017713714) rotate(0 30.869972229003906 12.5)"><text x="0" y="0" font-family="Virgil, Segoe UI Emoji" font-size="20px" fill="#1e1e1e" text-anchor="start" style="white-space: pre;" direction="ltr" dominant-baseline="text-before-edge">tarojs</text></g><g transform="translate(267.04638782888674 419.2293517713714) rotate(0 54.35993957519531 12.5)"><text x="0" y="0" font-family="Virgil, Segoe UI Emoji" font-size="20px" fill="#1e1e1e" text-anchor="start" style="white-space: pre;" direction="ltr" dominant-baseline="text-before-edge">elementplus</text></g><g transform="translate(302.80810657888674 265.5496642713714) rotate(0 22.67998504638672 12.5)"><text x="0" y="0" font-family="Virgil, Segoe UI Emoji" font-size="20px" fill="#1e1e1e" text-anchor="start" style="white-space: pre;" direction="ltr" dominant-baseline="text-before-edge">antd</text></g><g transform="translate(328.6010753288866 293.0418517713714) rotate(0 31.449966430664062 12.5)"><text x="0" y="0" font-family="Virgil, Segoe UI Emoji" font-size="20px" fill="#1e1e1e" text-anchor="start" style="white-space: pre;" direction="ltr" dominant-baseline="text-before-edge">cssinjs</text></g><g transform="translate(303.61279407888674 327.4598205213714) rotate(0 22.959976196289062 12.5)"><text x="0" y="0" font-family="Virgil, Segoe UI Emoji" font-size="20px" fill="#1e1e1e" text-anchor="start" style="white-space: pre;" direction="ltr" dominant-baseline="text-before-edge">sass</text></g><g transform="translate(327.8627940788866 385.7566955213714) rotate(0 48.25994110107422 12.5)"><text x="0" y="0" font-family="Virgil, Segoe UI Emoji" font-size="20px" fill="#1e1e1e" text-anchor="start" style="white-space: pre;" direction="ltr" dominant-baseline="text-before-edge">typescript</text></g><g transform="translate(317.1010753288866 357.1277892713714) rotate(0 56.989952087402344 12.5)"><text x="0" y="0" font-family="Virgil, Segoe UI Emoji" font-size="20px" fill="#1e1e1e" text-anchor="start" style="white-space: pre;" direction="ltr" dominant-baseline="text-before-edge">reactnative</text></g><g transform="translate(98.41748157888651 74.19419552137143) rotate(0 19.54998016357422 12.5)"><text x="0" y="0" font-family="Virgil, Segoe UI Emoji" font-size="20px" fill="#1e1e1e" text-anchor="start" style="white-space: pre;" direction="ltr" dominant-baseline="text-before-edge">html</text></g><g transform="translate(71.37451282888651 111.16294552137143) rotate(0 15.879981994628906 12.5)"><text x="0" y="0" font-family="Virgil, Segoe UI Emoji" font-size="20px" fill="#1e1e1e" text-anchor="start" style="white-space: pre;" direction="ltr" dominant-baseline="text-before-edge">css</text></g><g transform="translate(373.5893565788866 113.67075802137143) rotate(0 49.369956970214844 12.5)"><text x="0" y="0" font-family="Virgil, Segoe UI Emoji" font-size="20px" fill="#1e1e1e" text-anchor="start" style="white-space: pre;" direction="ltr" dominant-baseline="text-before-edge">javascript</text></g><g transform="translate(406.2807628288866 66.05747677137143) rotate(0 28.879974365234375 12.5)"><text x="0" y="0" font-family="Virgil, Segoe UI Emoji" font-size="20px" fill="#1e1e1e" text-anchor="start" style="white-space: pre;" direction="ltr" dominant-baseline="text-before-edge">jquery</text></g><g transform="translate(388.1870128288865 92.33872677137143) rotate(0 16.379981994628906 12.5)"><text x="0" y="0" font-family="Virgil, Segoe UI Emoji" font-size="20px" fill="#1e1e1e" text-anchor="start" style="white-space: pre;" direction="ltr" dominant-baseline="text-before-edge">vue</text></g><g transform="translate(402.7612315788865 40.95982052137143) rotate(0 27.10997772216797 12.5)"><text x="0" y="0" font-family="Virgil, Segoe UI Emoji" font-size="20px" fill="#1e1e1e" text-anchor="start" style="white-space: pre;" direction="ltr" dominant-baseline="text-before-edge">react</text></g><g stroke-linecap="round"><g transform="translate(77.15576282888662 433.3582580213714) rotate(0 143.54090029388914 -101.60304304107086)"><path d="M0.24 1.11 C-0.14 1.03, -7.59 10.8, -1.56 0.5 C4.48 -9.81, 25.03 -62.24, 36.47 -60.7 C47.91 -59.15, 56.52 2.14, 67.06 9.75 C77.6 17.37, 85.62 10.91, 99.72 -15.02 C113.83 -40.94, 122.05 -114.71, 151.68 -145.81 C181.3 -176.9, 254.6 -189.75, 277.47 -201.58 C300.34 -213.41, 286.8 -214.03, 288.89 -216.78 M-1.1 0.65 C-1.18 0.72, -5.62 8.63, 0.58 -1.37 C6.79 -11.36, 25.05 -61.34, 36.13 -59.32 C47.21 -57.31, 56.7 3.27, 67.07 10.73 C77.44 18.19, 84.57 11.71, 98.35 -14.57 C112.14 -40.86, 119.88 -115.55, 149.77 -146.96 C179.67 -178.38, 254.71 -191.4, 277.72 -203.04 C300.74 -214.69, 286.02 -214.63, 287.88 -216.82" stroke="#1e1e1e" stroke-width="1" fill="none"></path></g></g><mask></mask><g stroke-linecap="round" transform="translate(45.09716907888651 49.78403927137143) rotate(0 11.375 10.75)"><path d="M8.25 0.55 C10.51 -0.13, 14.02 -0.17, 16.34 0.63 C18.66 1.44, 21.16 3.06, 22.16 5.38 C23.15 7.69, 23.08 12.21, 22.3 14.54 C21.52 16.87, 19.36 18.16, 17.5 19.37 C15.64 20.59, 13.61 22.14, 11.12 21.83 C8.63 21.53, 4.42 19.21, 2.55 17.53 C0.69 15.84, -0.15 13.93, -0.09 11.72 C-0.03 9.52, 1.32 6.3, 2.89 4.29 C4.45 2.28, 8.18 0.21, 9.3 -0.34 C10.42 -0.89, 9.64 0.58, 9.62 0.97 M11.49 0.29 C13.89 0.44, 18.31 1.64, 20.4 3.24 C22.48 4.84, 23.74 7.73, 23.98 9.88 C24.22 12.03, 23.27 14.07, 21.84 16.15 C20.4 18.24, 17.87 21.68, 15.38 22.41 C12.9 23.13, 9.38 21.51, 6.94 20.51 C4.5 19.5, 1.78 18.22, 0.76 16.38 C-0.27 14.54, -0.07 11.99, 0.78 9.46 C1.63 6.92, 3.99 2.76, 5.84 1.16 C7.7 -0.44, 11 0.15, 11.9 -0.16 C12.8 -0.47, 11.12 -1.06, 11.25 -0.69" stroke="#1e1e1e" stroke-width="1" fill="none"></path></g><g stroke-linecap="round"><g transform="translate(56.16748157888651 73.30747677137143) rotate(0 -4.3849481913727 7.597104249475521)"><path d="M-0.6 -0.34 C-1.93 2.31, -7.61 12.73, -8.86 15.43 M1.29 -1.56 C-0.17 1.29, -8.39 13.63, -10.06 16.76" stroke="#1e1e1e" stroke-width="1" fill="none"></path></g></g><mask></mask><g stroke-linecap="round"><g transform="translate(43.24170032888651 90.97935177137143) rotate(0 3.538738804520108 15.20429071950727)"><path d="M0.46 0.12 C1.8 5.13, 6.74 25.04, 7.84 30.17 M-0.76 -0.87 C0.42 4.28, 5.09 25.78, 6.77 31.28" stroke="#1e1e1e" stroke-width="1" fill="none"></path></g></g><mask></mask><g stroke-linecap="round"><g transform="translate(43.07763782888651 89.72544552137143) rotate(0 6.735629232437361 2.8916615525027822)"><path d="M-0.29 0.33 C1.6 1.26, 9.53 5.7, 11.61 6.32 M1.77 -0.54 C3.98 0.02, 12.19 3.94, 13.76 4.82" stroke="#1e1e1e" stroke-width="1" fill="none"></path></g></g><mask></mask><g stroke-linecap="round"><g transform="translate(58.65185657888662 73.82310177137143) rotate(0 11.840685254805749 0.48911180282942723)"><path d="M0.74 -0.07 C4.68 0.05, 20.32 0.46, 24.01 0.66 M-0.33 -1.16 C3.5 -0.83, 19.83 2.11, 23.55 2.14" stroke="#1e1e1e" stroke-width="1" fill="none"></path></g></g><mask></mask><g stroke-linecap="round"><g transform="translate(59.30810657888662 75.51060177137143) rotate(0 6.1787594597274165 7.423692731908517)"><path d="M0.74 -0.84 C2.99 1.4, 10.88 11.63, 12.69 14.15 M-0.33 1.34 C1.93 3.71, 10.43 13.3, 12.27 15.68" stroke="#1e1e1e" stroke-width="1" fill="none"></path></g></g><mask></mask><g stroke-linecap="round"><g transform="translate(54.28076282888662 96.53794552137143) rotate(0 2.557316276752374 6.046177614233471)"><path d="M-0.8 0.9 C-0.28 2.73, 2.87 9.97, 3.58 11.76 M0.98 0.33 C1.85 1.74, 5.09 8.43, 5.92 9.97" stroke="#1e1e1e" stroke-width="1" fill="none"></path></g></g><mask></mask><g stroke-linecap="round" transform="translate(350.10754207128184 47.36747702884955) rotate(0 11.375 10.75)"><path d="M8.98 0.49 C11.19 -0.12, 13.6 -0.32, 15.85 0.83 C18.11 1.99, 21.53 5.23, 22.5 7.4 C23.48 9.56, 22.52 11.65, 21.7 13.83 C20.87 16.01, 19.62 19.05, 17.55 20.45 C15.48 21.85, 11.57 22.57, 9.28 22.25 C6.99 21.92, 5.4 20.28, 3.79 18.51 C2.19 16.75, 0.09 13.93, -0.34 11.64 C-0.76 9.34, -1.03 6.63, 1.24 4.74 C3.5 2.85, 10.79 1.04, 13.24 0.3 C15.7 -0.44, 16.11 0.04, 15.97 0.29 M12.08 -0.95 C14.1 -0.73, 18.22 1.71, 19.78 3.56 C21.34 5.41, 21.51 7.59, 21.44 10.13 C21.37 12.67, 20.75 17.09, 19.35 18.8 C17.95 20.5, 15.39 19.94, 13.03 20.35 C10.67 20.75, 7.23 22.31, 5.2 21.23 C3.18 20.14, 1.71 15.92, 0.89 13.82 C0.08 11.71, -0.26 10.51, 0.31 8.6 C0.87 6.69, 2.36 3.79, 4.3 2.35 C6.23 0.91, 10.59 0.31, 11.93 -0.04 C13.26 -0.39, 11.93 -0.22, 12.3 0.23" stroke="#1e1e1e" stroke-width="1" fill="none"></path></g><g stroke-linecap="round"><g transform="translate(361.17785457128184 70.89091452884955) rotate(0 -3.8377649862831618 7.749782480299473)"><path d="M-0.57 -0.65 C-2.23 1.85, -7.75 13.52, -9.01 16.14 M1.34 1.63 C-0.01 4.25, -4.94 11.79, -6.63 14.19" stroke="#1e1e1e" stroke-width="1" fill="none"></path></g></g><mask></mask><g stroke-linecap="round"><g transform="translate(348.25207332128184 88.56278952884955) rotate(0 3.823153410851944 15.44053158904427)"><path d="M-0.63 0.32 C0.84 5.48, 6.89 25.02, 8.28 30.27 M1.24 -0.55 C2.63 4.8, 6.53 26.35, 7.45 31.43" stroke="#1e1e1e" stroke-width="1" fill="none"></path></g></g><mask></mask><g stroke-linecap="round"><g transform="translate(348.08801082128184 87.30888327884955) rotate(0 5.613499620431071 2.628872503340233)"><path d="M0.22 -0.71 C2.39 0.23, 10.08 5.11, 12.34 5.97 M-1.12 1.53 C0.91 2.11, 8.75 3.65, 11.21 4.29" stroke="#1e1e1e" stroke-width="1" fill="none"></path></g></g><mask></mask><g stroke-linecap="round"><g transform="translate(364.31847957128207 73.09403952884955) rotate(0 6.225702486932278 7.4194169607292935)"><path d="M-0.35 0.84 C1.74 3.2, 10.79 11.24, 12.8 13.44 M1.66 0.23 C3.68 2.8, 10.9 12.1, 12.45 14.61" stroke="#1e1e1e" stroke-width="1" fill="none"></path></g></g><mask></mask><g stroke-linecap="round"><g transform="translate(359.29113582128207 94.12138327884955) rotate(0 4.52635991501154 2.7519560003792947)"><path d="M1.13 -0.71 C2.65 -0.06, 7.37 3.97, 8.79 4.74 M0.26 1.54 C1.66 2.31, 6.35 5.68, 7.86 6.21" stroke="#1e1e1e" stroke-width="1" fill="none"></path></g></g><mask></mask><g stroke-linecap="round"><g transform="translate(365.3510753288866 73.27232052137143) rotate(0 6.041926155984413 -0.3951053003679448)"><path d="M-1.06 -0.09 C1.11 0.17, 10.69 0.58, 13.15 0.6 M0.58 -1.18 C2.54 -1.2, 9.92 -1.63, 11.98 -1.21" stroke="#1e1e1e" stroke-width="1" fill="none"></path></g></g><mask></mask><g stroke-linecap="round" transform="translate(104.95263782888662 322.9207580213714) rotate(0 8.646484375 9.685546875)"><path d="M6.12 1.03 C7.66 0.02, 9.73 -0.69, 11.44 -0.11 C13.15 0.47, 15.45 2.56, 16.39 4.51 C17.33 6.47, 17.6 9.46, 17.09 11.62 C16.58 13.77, 14.77 16.11, 13.35 17.44 C11.93 18.76, 10.34 19.71, 8.55 19.56 C6.77 19.41, 3.98 18, 2.64 16.54 C1.29 15.08, 0.87 12.81, 0.49 10.8 C0.11 8.8, -0.54 6.26, 0.37 4.52 C1.28 2.78, 4.84 1.13, 5.96 0.37 C7.08 -0.4, 7 -0.27, 7.08 -0.06 M7.36 -0.3 C8.8 -0.57, 10.01 0.86, 11.38 1.92 C12.74 2.98, 14.46 4.45, 15.54 6.04 C16.62 7.63, 18.06 9.46, 17.87 11.46 C17.67 13.46, 15.9 16.95, 14.36 18.04 C12.82 19.13, 10.59 18.1, 8.63 18.01 C6.68 17.92, 4.24 18.95, 2.63 17.5 C1.01 16.05, -1.17 11.45, -1.08 9.3 C-0.99 7.15, 1.96 5.97, 3.16 4.58 C4.37 3.2, 5.68 1.6, 6.15 1 C6.63 0.39, 5.65 1.06, 6 0.93" stroke="#1e1e1e" stroke-width="1" fill="none"></path></g><g stroke-linecap="round"><g transform="translate(114.55810657888662 343.4441955213714) rotate(0 -0.0792736459839034 6.952209817422556)"><path d="M0.73 0.58 C0.84 2.62, 0.18 10.52, -0.19 12.61 M-0.34 -0.17 C-0.27 2.04, -1.08 12.22, -0.87 14.07" stroke="#1e1e1e" stroke-width="1" fill="none"></path></g></g><mask></mask><g stroke-linecap="round"><g transform="translate(112.58935657888662 358.6863830213714) rotate(0 -2.8650221202057082 7.1579386763554)"><path d="M-0.6 0.34 C-1.5 2.63, -5.15 11.61, -5.86 13.9 M1.28 -0.53 C0.24 1.86, -5.91 12.27, -7.01 14.85" stroke="#1e1e1e" stroke-width="1" fill="none"></path></g></g><mask></mask><g stroke-linecap="round"><g transform="translate(115.14795032888662 358.5379455213714) rotate(0 3.1298229319462507 9.835716727688009)"><path d="M0.1 0.48 C1.43 3.71, 6.35 16.88, 7.56 19.98 M-1.3 -0.31 C-0.02 2.49, 5.7 14.67, 7.09 18.09" stroke="#1e1e1e" stroke-width="1" fill="none"></path></g></g><mask></mask><g stroke-linecap="round"><g transform="translate(97.10888782888662 349.4871642713714) rotate(0 8.852379179494449 -2.9973617896437474)"><path d="M-0.1 -0.25 C2.77 -1.37, 14.18 -4.92, 17.16 -5.75 M-1.61 -1.42 C1.62 -2.41, 16.26 -3.15, 19.32 -4.11" stroke="#1e1e1e" stroke-width="1" fill="none"></path></g></g><mask></mask><g stroke-linecap="round"><g transform="translate(119.54248157888662 345.1160705213714) rotate(0 5.897871990078102 4.918573531559673)"><path d="M1.02 -0.52 C2.95 1, 10 7.34, 11.7 9.04 M0.1 1.83 C1.92 3.52, 9.38 8.81, 11.12 10.35" stroke="#1e1e1e" stroke-width="1" fill="none"></path></g></g><mask></mask><g transform="translate(88.57763782888662 288.5731017713714) rotate(0 30 25)"><text x="0" y="0" font-family="Virgil, Segoe UI Emoji" font-size="20px" fill="#1e1e1e" text-anchor="start" style="white-space: pre;" direction="ltr" dominant-baseline="text-before-edge">？？？</text><text x="0" y="25" font-family="Virgil, Segoe UI Emoji" font-size="20px" fill="#1e1e1e" text-anchor="start" style="white-space: pre;" direction="ltr" dominant-baseline="text-before-edge"></text></g><g transform="translate(18.483887828886623 21.073101771371427) rotate(0 26.979965209960938 12.5)"><text x="0" y="0" font-family="Virgil, Segoe UI Emoji" font-size="20px" fill="#1e1e1e" text-anchor="start" style="white-space: pre;" direction="ltr" dominant-baseline="text-before-edge">simple</text></g><g transform="translate(355.8198253288866 12.225445521371427) rotate(0 22.259979248046875 25)"><text x="0" y="0" font-family="Virgil, Segoe UI Emoji" font-size="20px" fill="#1e1e1e" text-anchor="start" style="white-space: pre;" direction="ltr" dominant-baseline="text-before-edge">easy</text><text x="0" y="25" font-family="Virgil, Segoe UI Emoji" font-size="20px" fill="#1e1e1e" text-anchor="start" style="white-space: pre;" direction="ltr" dominant-baseline="text-before-edge"></text></g></svg>